<?xml version="1.0" standalone="no"?><!DOCTYPE svg PUBLIC "-//W3C//DTD SVG 1.1//EN" "http://www.w3.org/Graphics/SVG/1.1/DTD/svg11.dtd"><svg t="1727896024218" class="icon" viewBox="0 0 1024 1024" version="1.1" xmlns="http://www.w3.org/2000/svg" p-id="21302" xmlns:xlink="http://www.w3.org/1999/xlink" width="200" height="200"><path d="M730.8288 653.806933c32.426667-95.061333 36.983467-188.535467 37.1712-192.4608a17.066667 17.066667 0 0 0-16.2816-17.8176c-9.2672-0.768-17.408 6.826667-17.8176 16.2816-0.0512 1.314133-2.645333 50.3296-15.957333 111.701334-21.674667 19.268267-55.995733 32.3584-75.605334 38.724266-5.410133-17.954133-15.496533-38.519467-34.594133-52.923733-24.234667-18.261333-56.405333-22.289067-95.744-12.032-39.287467-10.257067-71.509333-6.229333-95.709867 12.032-19.114667 14.404267-29.184 34.9696-34.594133 52.906667-19.592533-6.314667-53.8624-19.4048-75.537067-38.638934-13.346133-61.405867-15.9744-110.472533-16.042666-111.786666-0.4096-9.4208-8.5504-16.452267-17.8176-16.264534a17.066667 17.066667 0 0 0-16.264534 17.8176c0.170667 3.925333 4.744533 97.399467 37.1712 192.4608 44.4416 130.389333 120.098133 199.304533 218.794667 199.304534 98.730667 0 174.3872-68.9152 218.8288-199.304534z m-412.040533-32.887466c21.504 11.400533 43.4688 19.0976 56.832 23.210666a79.018667 79.018667 0 0 0-0.136534 4.181334c0 9.386667 7.611733 17.015467 17.015467 17.032533H392.533333a17.066667 17.066667 0 0 0 17.066667-16.981333c0-0.443733 0.580267-43.8272 27.357867-63.880534 16.145067-12.0832 39.8336-13.789867 70.3488-5.085866 3.072 0.853333 6.314667 0.853333 9.386666 0 30.5152-8.738133 54.203733-7.0144 70.3488 5.085866C613.8368 604.535467 614.4 647.918933 614.4 648.311467a17.066667 17.066667 0 1 0 34.133333 0c0-0.341333-0.017067-1.877333-0.170666-4.164267 13.4144-4.130133 35.413333-11.844267 56.968533-23.296C677.000533 716.373333 621.175467 818.978133 512 818.978133c-109.0048 0-164.864-102.570667-193.2288-198.058666z m693.5552 401.9712a17.083733 17.083733 0 0 1-21.589334-10.786134l-18.158933-54.510933c-14.455467-43.7248-34.269867-103.492267-250.709333-103.7824-8.874667 6.109867-32.853333 24.200533-57.1392 55.876267a16.861867 16.861867 0 0 1-5.512534 7.509333 303.701333 303.701333 0 0 0-45.482666 94.190933 17.066667 17.066667 0 0 1-32.802134-9.352533c4.693333-16.469333 10.359467-31.624533 16.554667-45.636267a729.565867 729.565867 0 0 0-73.4208 62.378667 17.015467 17.015467 0 0 1-24.132267 0 17.0496 17.0496 0 0 1 0-24.132267c2.781867-2.781867 67.1744-66.730667 134.9632-102.434133 35.054933-47.0528 70.8608-68.778667 73.216-70.144 3.584-2.133333 7.8848-2.4064 12.049067-2.389333 242.756267 0 268.049067 76.4928 284.8256 127.197866l18.141867 54.442667a17.0496 17.0496 0 0 1-10.8032 21.572267zM324.266667 836.0448a17.066667 17.066667 0 0 1-17.066667 17.066667c-221.201067 0-240.3328 57.821867-255.709867 104.260266L33.28 1012.104533a17.083733 17.083733 0 0 1-32.392533-10.786133l18.2272-54.664533C36.932267 892.757333 61.354667 818.978133 307.2 818.978133a17.066667 17.066667 0 0 1 17.066667 17.066667z m221.866666-187.733333h-68.266666a17.066667 17.066667 0 1 1 0-34.133334h68.266666a17.066667 17.066667 0 1 1 0 34.133334z m-324.266666-409.6h91.8528l-4.727467 9.437866a17.066667 17.066667 0 1 0 30.549333 15.2576l12.3392-24.695466h47.172267l12.3392 24.695466a17.066667 17.066667 0 0 0 30.532267-15.2576l-4.7104-9.437866h149.572266l-4.727466 9.437866a17.066667 17.066667 0 1 0 30.532266 15.2576l12.356267-24.695466h30.1056l-4.727467 9.437866a17.066667 17.066667 0 1 0 30.549334 15.2576l12.3392-24.695466H802.133333a17.066667 17.066667 0 1 0 0-34.133334h-19.5584c-14.865067-79.4112-67.822933-153.088-135.338666-186.436266C600.8832-4.744533 553.284267-5.973333 512.068267 14.4896c-40.635733-20.3776-87.9104-19.285333-134.212267 3.413333-68.130133 33.4336-121.514667 107.1616-136.413867 186.6752H221.866667a17.066667 17.066667 0 1 0 0 34.133334zM392.874667 48.571733c38.946133-19.114667 78.165333-19.114667 110.421333 0a17.066667 17.066667 0 0 0 17.322667 0.068267c42.1376-24.644267 83.899733-13.533867 111.5136 0.1024 56.490667 27.921067 100.898133 89.0368 115.3024 155.818667h-37.137067l4.727467-9.4208a17.066667 17.066667 0 0 0-30.549334-15.2576l-12.3392 24.695466h-132.5056l-12.356266-24.695466a17.066667 17.066667 0 0 0-30.549334 15.2576l4.744534 9.437866h-81.3056l-12.3392-24.695466a17.066667 17.066667 0 0 0-30.549334 15.2576l4.727467 9.437866h-105.403733c14.4896-66.8672 59.255467-128.0512 116.2752-156.0064zM392.533333 409.361067v-1.024l-15.991466 1.006933a17.066667 17.066667 0 0 1-2.116267-34.065067l68.2496-4.266666a17.066667 17.066667 0 1 1 2.133333 34.065066L426.666667 406.2208v3.157333a17.066667 17.066667 0 1 1-34.133334 0z m204.8 0v-3.140267l-18.1248-1.143467a17.0496 17.0496 0 1 1 2.133334-34.065066l68.266666 4.266666a17.066667 17.066667 0 0 1-1.041066 34.0992l-1.092267-0.034133-15.991467-0.989867v1.024a17.066667 17.066667 0 1 1-34.133333 0z m213.0944 156.433066c-4.283733 25.6-8.328533 49.800533-8.328533 82.517334 0 65.399467 16.4352 131.720533 16.605867 132.386133a17.066667 17.066667 0 1 1-33.109334 8.2944c-0.7168-2.8672-17.629867-71.1168-17.629866-140.680533 0-35.549867 4.471467-62.293333 8.789333-88.149334 4.266667-25.617067 8.328533-49.800533 8.328533-82.517333 0-97.979733-32.597333-180.565333-32.938666-181.418667a17.066667 17.066667 0 0 1 31.726933-12.6464c1.4336 3.584 35.328 89.582933 35.328 194.048 0 35.566933-4.4544 62.293333-8.772267 88.1664z m-50.005333 307.2512c7.8336 5.239467 9.949867 15.8208 4.727467 23.671467C734.242133 943.069867 733.866667 1006.08 733.866667 1006.711467a17.066667 17.066667 0 1 1-34.133334 0c0-3.003733 0.4096-74.069333 37.000534-128.938667a17.066667 17.066667 0 0 1 23.671466-4.727467z m-546.816-307.2512C209.288533 539.921067 204.8 513.194667 204.8 477.6448c0-104.482133 33.911467-190.464 35.328-194.065067 3.515733-8.772267 13.448533-12.970667 22.186667-9.5232 8.7552 3.498667 13.021867 13.431467 9.540266 22.186667-0.341333 0.8192-32.938667 83.729067-32.938666 181.4016 0 32.7168 4.061867 56.900267 8.3456 82.517333 4.317867 25.873067 8.789333 52.599467 8.789333 88.149334 0 69.563733-16.913067 137.813333-17.629867 140.680533a17.066667 17.066667 0 0 1-33.109333-8.2944c0.170667-0.682667 16.605867-67.140267 16.605867-132.386133 0-32.7168-4.0448-56.900267-8.328534-82.517334z" fill="#231F1F" p-id="21303"></path></svg>